<?xml version="1.0" encoding="UTF-8" standalone="no" ?>
<!DOCTYPE svg PUBLIC "-//W3C//DTD SVG 1.1//EN" "http://www.w3.org/Graphics/SVG/1.1/DTD/svg11.dtd">
<svg xmlns="http://www.w3.org/2000/svg" xmlns:xlink="http://www.w3.org/1999/xlink" version="1.1" width="500" height="500" viewBox="0 0 500 500" xml:space="preserve">
<desc>Created with Fabric.js 4.6.0</desc>
<defs>
</defs>
<g transform="matrix(1 0 0 1 503.38 -101.32)" id="Y_vjqyIKO6k87_yc5rp6i"  >
<g style="" vector-effect="non-scaling-stroke"   >
		<g transform="matrix(1 0 0 1 0 0)" id="RhXnayaMyHRRDaq8J3iZR"  >
<filter id="SVGID_295" y="-38%" height="176%" x="-38%" width="176%" >
	<feGaussianBlur in="SourceAlpha" stdDeviation="4.5"></feGaussianBlur>
	<feOffset dx="0" dy="0" result="oBlur" ></feOffset>
	<feFlood flood-color="rgb(137,137,137)" flood-opacity="1"/>
	<feComposite in2="oBlur" operator="in" />
	<feMerge>
		<feMergeNode></feMergeNode>
		<feMergeNode in="SourceGraphic"></feMergeNode>
	</feMerge>
</filter>
<path style="stroke: rgb(104,30,21); stroke-width: 0; stroke-dasharray: none; stroke-linecap: butt; stroke-dashoffset: 0; stroke-linejoin: miter; stroke-miterlimit: 4; fill: rgb(213,213,213); fill-rule: nonzero; opacity: 1;filter: url(#SVGID_295);" vector-effect="non-scaling-stroke"  transform=" translate(-25, -25)" d="M 25 0 C 38.8 0 50 11.2 50 25 C 50 38.8 38.8 50 25 50 C 11.2 50 0 38.8 0 25 C 0 11.2 11.2 0 25 0 z" stroke-linecap="round" />
</g>
		<g transform="matrix(0.69 0 0 0.69 0 0)" id="sxnvq3dUqezkInbN6JLPq"  >
<path style="stroke: rgb(104,30,21); stroke-width: 0; stroke-dasharray: none; stroke-linecap: butt; stroke-dashoffset: 0; stroke-linejoin: miter; stroke-miterlimit: 4; fill: rgb(199,187,187); fill-rule: nonzero; opacity: 1;" vector-effect="non-scaling-stroke"  transform=" translate(0, 0)" d="M 0 -25 C 13.8 -25 25 -13.8 25 0 C 25 13.8 13.8 25 0 25 C -13.8 25 -25 13.8 -25 0 C -25 -13.8 -13.8 -25 0 -25 z" stroke-linecap="round" />
</g>
</g>
</g>
<g transform="matrix(9.27 0 0 9.27 250 250)" id="ND7EixhQIXhhclCpGx0_Q"  >
<filter id="SVGID_297" y="-38%" height="176%" x="-38%" width="176%" >
	<feGaussianBlur in="SourceAlpha" stdDeviation="4.5"></feGaussianBlur>
	<feOffset dx="0" dy="0" result="oBlur" ></feOffset>
	<feFlood flood-color="rgb(137,137,137)" flood-opacity="1"/>
	<feComposite in2="oBlur" operator="in" />
	<feMerge>
		<feMergeNode></feMergeNode>
		<feMergeNode in="SourceGraphic"></feMergeNode>
	</feMerge>
</filter>
<path style="stroke: rgb(104,30,21); stroke-width: 0; stroke-dasharray: none; stroke-linecap: butt; stroke-dashoffset: 0; stroke-linejoin: miter; stroke-miterlimit: 4; fill: rgb(54,54,54); fill-rule: nonzero; opacity: 1;filter: url(#SVGID_297);" vector-effect="non-scaling-stroke"  transform=" translate(0, 0)" d="M 0 -25 C 13.8 -25 25 -13.8 25 0 C 25 13.8 13.8 25 0 25 C -13.8 25 -25 13.8 -25 0 C -25 -13.8 -13.8 -25 0 -25 z" stroke-linecap="round" />
</g>
<g transform="matrix(6.4 0 0 6.4 250 250)" id="iaVfu8jp3Ek0CsJwNHDjk"  >
<path style="stroke: rgb(104,30,21); stroke-width: 0; stroke-dasharray: none; stroke-linecap: butt; stroke-dashoffset: 0; stroke-linejoin: miter; stroke-miterlimit: 4; fill: rgb(123,123,123); fill-rule: nonzero; opacity: 1;" vector-effect="non-scaling-stroke"  transform=" translate(0, 0)" d="M 0 -25 C 13.8 -25 25 -13.8 25 0 C 25 13.8 13.8 25 0 25 C -13.8 25 -25 13.8 -25 0 C -25 -13.8 -13.8 -25 0 -25 z" stroke-linecap="round" />
</g>
</svg>