<?xml version="1.0" encoding="UTF-8" standalone="no" ?>
<!DOCTYPE svg PUBLIC "-//W3C//DTD SVG 1.1//EN" "http://www.w3.org/Graphics/SVG/1.1/DTD/svg11.dtd">
<svg xmlns="http://www.w3.org/2000/svg" xmlns:xlink="http://www.w3.org/1999/xlink" version="1.1" width="500" height="500" viewBox="0 0 500 500" xml:space="preserve">
<desc>Created with Fabric.js 4.6.0</desc>
<defs>
</defs>
<g transform="matrix(9.27 0 0 9.27 250 250)" id="Y_vjqyIKO6k87_yc5rp6i"  >
<g style="" vector-effect="non-scaling-stroke"   >
		<g transform="matrix(1 0 0 1 0 0)" id="RhXnayaMyHRRDaq8J3iZR"  >
<filter id="SVGID_295" y="-38%" height="176%" x="-38%" width="176%" >
	<feGaussianBlur in="SourceAlpha" stdDeviation="4.5"></feGaussianBlur>
	<feOffset dx="0" dy="0" result="oBlur" ></feOffset>
	<feFlood flood-color="rgb(137,137,137)" flood-opacity="1"/>
	<feComposite in2="oBlur" operator="in" />
	<feMerge>
		<feMergeNode></feMergeNode>
		<feMergeNode in="SourceGraphic"></feMergeNode>
	</feMerge>
</filter>
<path style="stroke: rgb(104,30,21); stroke-width: 0; stroke-dasharray: none; stroke-linecap: butt; stroke-dashoffset: 0; stroke-linejoin: miter; stroke-miterlimit: 4; fill: rgb(213,213,213); fill-rule: nonzero; opacity: 1;filter: url(#SVGID_295);" vector-effect="non-scaling-stroke"  transform=" translate(-25, -25)" d="M 25 0 C 38.8 0 50 11.2 50 25 C 50 38.8 38.8 50 25 50 C 11.2 50 0 38.8 0 25 C 0 11.2 11.2 0 25 0 z" stroke-linecap="round" />
</g>
		<g transform="matrix(0.69 0 0 0.69 0 0)" id="sxnvq3dUqezkInbN6JLPq"  >
<path style="stroke: rgb(104,30,21); stroke-width: 0; stroke-dasharray: none; stroke-linecap: butt; stroke-dashoffset: 0; stroke-linejoin: miter; stroke-miterlimit: 4; fill: rgb(199,187,187); fill-rule: nonzero; opacity: 1;" vector-effect="non-scaling-stroke"  transform=" translate(0, 0)" d="M 0 -25 C 13.8 -25 25 -13.8 25 0 C 25 13.8 13.8 25 0 25 C -13.8 25 -25 13.8 -25 0 C -25 -13.8 -13.8 -25 0 -25 z" stroke-linecap="round" />
</g>
</g>
</g>
<g transform="matrix(1 0 0 1 141.73 -189.04)" id="71ARY4LCOvb0um6QP9F1r"  >
<g style="" vector-effect="non-scaling-stroke"   >
		<g transform="matrix(1.15 0 0 1.15 0 0)" id="ziofL_6b8lKTvqgmtBJpS"  >
<path style="stroke: none; stroke-width: 1; stroke-dasharray: none; stroke-linecap: butt; stroke-dashoffset: 0; stroke-linejoin: miter; stroke-miterlimit: 4; fill: rgb(183,174,0); fill-rule: nonzero; opacity: 1;" vector-effect="non-scaling-stroke"  transform=" translate(0, 0)" d="M 12.4 -13 L 0 -38 L -12.4 -13 L -40 -9 L -20 10.5 L -24.7 38 L 0 25 L 24.7 38 L 20 10.5 L 24.72037 5.89764 L 40 -9 z" stroke-linecap="round" />
</g>
		<g transform="matrix(1.15 0 0 1.15 0 1.16)" id="bW1dZP0tFLrEqu80NmwTN"  >
<path style="stroke: none; stroke-width: 1; stroke-dasharray: none; stroke-linecap: butt; stroke-dashoffset: 0; stroke-linejoin: miter; stroke-miterlimit: 4; fill: rgb(160,154,42); fill-rule: nonzero; opacity: 1;" vector-effect="non-scaling-stroke"  transform=" translate(0, 0)" d="M 10 -10.5 L 0 -30.7 L -10 -10.5 L -32.3 -7.3 L -16.199999999999996 8.399999999999999 L -19.999999999999996 30.599999999999998 L 3.552713678800501e-15 20.199999999999996 L 20.000000000000004 30.699999999999996 L 16.200000000000003 8.499999999999996 L 32.300000000000004 -7.200000000000003 z" stroke-linecap="round" />
</g>
		<g transform="matrix(1.15 0 0 1.15 0 2.89)" id="zt7dJP7KTFbEeoEyolBw9"  >
<path style="stroke: none; stroke-width: 1; stroke-dasharray: none; stroke-linecap: butt; stroke-dashoffset: 0; stroke-linejoin: miter; stroke-miterlimit: 4; fill: rgb(183,174,0); fill-rule: nonzero; opacity: 1;" vector-effect="non-scaling-stroke"  transform=" translate(0, 0)" d="M 19 -4.3 L 9.5 5.000000000000001 L 11.7 18.1 L 0 11.900000000000002 L -11.7 18.1 L -9.5 5.000000000000002 L -19 -4.299999999999999 L -5.9 -6.199999999999999 L 0 -18.1 L 5.9 -6.200000000000001 z" stroke-linecap="round" />
</g>
</g>
</g>
<g transform="matrix(3.52 0 0 3.52 -324.54 -144.84)" id="ZAAoBCuTDTEb-37agG4Mo"  >
<g style="" vector-effect="non-scaling-stroke"   >
		<g transform="matrix(1.15 0 0 1.15 0 0)" id="ZrWKsbSQK5hzlnWFlov9e"  >
<path style="stroke: none; stroke-width: 1; stroke-dasharray: none; stroke-linecap: butt; stroke-dashoffset: 0; stroke-linejoin: miter; stroke-miterlimit: 4; fill: rgb(183,174,0); fill-rule: nonzero; opacity: 1;" vector-effect="non-scaling-stroke"  transform=" translate(0, 0)" d="M 12.4 -13 L 0 -38 L -12.4 -13 L -40 -9 L -20 10.5 L -24.7 38 L 0 25 L 24.7 38 L 20 10.5 L 24.72037 5.89764 L 40 -9 z" stroke-linecap="round" />
</g>
		<g transform="matrix(1.15 0 0 1.15 0 1.16)" id="Zb9pHuzLY0Z3zDvImqWI3"  >
<path style="stroke: none; stroke-width: 1; stroke-dasharray: none; stroke-linecap: butt; stroke-dashoffset: 0; stroke-linejoin: miter; stroke-miterlimit: 4; fill: rgb(160,154,42); fill-rule: nonzero; opacity: 1;" vector-effect="non-scaling-stroke"  transform=" translate(0, 0)" d="M 10 -10.5 L 0 -30.7 L -10 -10.5 L -32.3 -7.3 L -16.199999999999996 8.399999999999999 L -19.999999999999996 30.599999999999998 L 3.552713678800501e-15 20.199999999999996 L 20.000000000000004 30.699999999999996 L 16.200000000000003 8.499999999999996 L 32.300000000000004 -7.200000000000003 z" stroke-linecap="round" />
</g>
		<g transform="matrix(1.15 0 0 1.15 0 2.89)" id="Wu--XMPQmM3HxZd9lbE47"  >
<path style="stroke: none; stroke-width: 1; stroke-dasharray: none; stroke-linecap: butt; stroke-dashoffset: 0; stroke-linejoin: miter; stroke-miterlimit: 4; fill: rgb(183,174,0); fill-rule: nonzero; opacity: 1;" vector-effect="non-scaling-stroke"  transform=" translate(0, 0)" d="M 19 -4.3 L 9.5 5.000000000000001 L 11.7 18.1 L 0 11.900000000000002 L -11.7 18.1 L -9.5 5.000000000000002 L -19 -4.299999999999999 L -5.9 -6.199999999999999 L 0 -18.1 L 5.9 -6.200000000000001 z" stroke-linecap="round" />
</g>
</g>
</g>
<g transform="matrix(1 0 0 1 -556.33 291.77)" id="Ut5HqGVdvtBdYurT8CsaA"  >
<g style="" vector-effect="non-scaling-stroke"   >
		<g transform="matrix(9.27 0 0 9.27 0 0)" id="ND7EixhQIXhhclCpGx0_Q"  >
<filter id="SVGID_297" y="-38%" height="176%" x="-38%" width="176%" >
	<feGaussianBlur in="SourceAlpha" stdDeviation="4.5"></feGaussianBlur>
	<feOffset dx="0" dy="0" result="oBlur" ></feOffset>
	<feFlood flood-color="rgb(137,137,137)" flood-opacity="1"/>
	<feComposite in2="oBlur" operator="in" />
	<feMerge>
		<feMergeNode></feMergeNode>
		<feMergeNode in="SourceGraphic"></feMergeNode>
	</feMerge>
</filter>
<path style="stroke: rgb(104,30,21); stroke-width: 0; stroke-dasharray: none; stroke-linecap: butt; stroke-dashoffset: 0; stroke-linejoin: miter; stroke-miterlimit: 4; fill: rgb(54,54,54); fill-rule: nonzero; opacity: 1;filter: url(#SVGID_297);" vector-effect="non-scaling-stroke"  transform=" translate(0, 0)" d="M 0 -25 C 13.8 -25 25 -13.8 25 0 C 25 13.8 13.8 25 0 25 C -13.8 25 -25 13.8 -25 0 C -25 -13.8 -13.8 -25 0 -25 z" stroke-linecap="round" />
</g>
		<g transform="matrix(6.4 0 0 6.4 0 0)" id="iaVfu8jp3Ek0CsJwNHDjk"  >
<path style="stroke: rgb(104,30,21); stroke-width: 0; stroke-dasharray: none; stroke-linecap: butt; stroke-dashoffset: 0; stroke-linejoin: miter; stroke-miterlimit: 4; fill: rgb(123,123,123); fill-rule: nonzero; opacity: 1;" vector-effect="non-scaling-stroke"  transform=" translate(0, 0)" d="M 0 -25 C 13.8 -25 25 -13.8 25 0 C 25 13.8 13.8 25 0 25 C -13.8 25 -25 13.8 -25 0 C -25 -13.8 -13.8 -25 0 -25 z" stroke-linecap="round" />
</g>
</g>
</g>
</svg>